# xmcd
#
# Track frame offsets: 
#        183
#        21323
#        27943
#        45165
#        57620
#        70340
#        89778
#        97988
#        118465
#        129353
#        151700
#        166893
#
# Disc length: 2446 seconds
#
# Revision: 0
# Processed by: cddbd v1.5.2PL0 Copyright (c) Steve Scherf et al.
# Submitted via: ExactAudioCopy v0.95b3
#
DISCID=9d098c0c
DTITLE=Various Artist - Songs of Wyoming
DYEAR=1990
DGENRE=Country
TTITLE0=Chris LeDoux - Johnson County War
TTITLE1=Bill Larsen - God's Summer Range
TTITLE2=Billy Bob Shane - Wander Through Wyoming
TTITLE3=The Grizzlies - Jackson Hole/Yellowstone
TTITLE4=Shelley and Kelly - East Slope
TTITLE5=Brent Moyer - Western Fire
TTITLE6=Pete Cameron - Cowboy Poetry
TTITLE7=Bruce Hauser and Sawmill Creek - Wymoing, My Sweet Destiny
TTITLE8=Babe Humphrey and The Bar J Wranglers - Wild Horse Yodel
TTITLE9=Bobby Bridger - The Hawk
TTITLE10=Bill Briggs and The Stagecoach Band - Snow King Yodel
TTITLE11=Kip Attaway - When I Get to Wyoming
EXTD=
EXTT0=
EXTT1=
EXTT2=
EXTT3=
EXTT4=
EXTT5=
EXTT6=
EXTT7=
EXTT8=
EXTT9=
EXTT10=
EXTT11=
PLAYORDER=
